<svg id="aec97417-65ee-4d77-8187-09623b5e1bfd" data-name="line" xmlns="http://www.w3.org/2000/svg" viewBox="0 0 64 64"><title>1</title><path d="M59.22589,32.28815a1.22622,1.22622,0,0,0-1.40423.28027c-2.12031,2.1778-4.54865-.02527-5.239-1.001a1.00733,1.00733,0,0,0-1.44726-.18835,2.85236,2.85236,0,0,1-3.55054.17285c-2.16687-1.47705-.65826-4.14618.0069-4.86108a1.00551,1.00551,0,0,0-.16321-1.46869c-1.70862-1.24225-.9931-4.55469-.98529-4.59052a1.0143,1.0143,0,0,0-.78015-1.21289,17.59041,17.59041,0,0,0-7.83765.205,17.75824,17.75824,0,0,0-19.50671-9.723,1.00739,1.00739,0,0,0-.77234,1.21179c.00781.0332.73236,3.33673-.97553,4.57886A1.0054,1.0054,0,0,0,16.40784,17.16c.72058.79749,2.13714,3.38086.01452,4.85621a2.85306,2.85306,0,0,1-3.55829-.168,1.01069,1.01069,0,0,0-1.44525.18554c-.66333.96289-3.13531,3.18927-5.23993,1.00373a1.22955,1.22955,0,0,0-1.40521-.28015c-.90912.43652-.82318,1.62689-.69427,3.4295a25.69188,25.69188,0,0,0,.47259,4.8855,1.00031,1.00031,0,0,0,1.951-.44147,33.56681,33.56681,0,0,1-.47253-5.236c2.14526,1.38916,5.123.03223,6.36969-1.44739a4.88023,4.88023,0,0,0,5.243-.34747c2.478-1.71381,2.24585-5.02191.84057-6.97327a6.68954,6.68954,0,0,0,1.17493-4.93036,15.74918,15.74918,0,0,1,16.24371,8.529c-8.60693,3.0105-13.79718,13.47834-10.503,22.3299a15.695,15.695,0,0,1-17.65124-8.368.99989.99989,0,0,0-1.80066.86932A17.73077,17.73077,0,0,0,26.1767,44.43909c6.5213,13.78637,26.85345,13.324,32.46624-1.184a1.00006,1.00006,0,0,0-1.86328-.72626C50.28235,58.59381,26.66864,54.1084,26.419,36.79163A15.74186,15.74186,0,0,1,44.33313,21.22327a6.71958,6.71958,0,0,0,1.18256,4.93432c-1.41419,1.96387-1.63129,5.25672.84771,6.97815a4.88011,4.88011,0,0,0,5.236.34278c1.22412,1.47271,4.24487,2.83734,6.36975,1.447-.13037,1.40167-.06391,2.61963-.248,3.95013a1.00052,1.00052,0,0,0,1.98224.27142c.17065-1.1784.12726-2.19848.2168-3.43139C60.05011,33.915,60.135,32.72467,59.22589,32.28815Z"/><path d="M50.81421,41.05035a2.44127,2.44127,0,0,0-1.76172-4.39715.99968.99968,0,0,0,.3009,1.97638.43932.43932,0,0,1,.41986.18164.41523.41523,0,0,1-.10546.60058A1,1,0,0,0,50.81421,41.05035Z"/><path d="M43.4826,38.22534c.56055-1.16382-.51745-3.63092-1.95416-2.53412a1,1,0,0,0-.02527,1.41407.43149.43149,0,0,1,.09571.4472.41418.41418,0,0,1-.55072.26178.99959.99959,0,0,0-1.27826.60443c-.327.90222.62829,1.4812,1.42474,1.42169A2.44222,2.44222,0,0,0,43.4826,38.22534Z"/><path d="M34.41962,44.16644c1.78833.14691,1.86456-2.25055.12292-2.01758a.435.435,0,0,1-.40515-.73913,1.00011,1.00011,0,0,0-1.33594-1.48816A2.44935,2.44935,0,0,0,34.41962,44.16644Z"/><path d="M39.09418,47.47485c1.13751.59107,3.64441-.42346,2.58288-1.88763a1.00129,1.00129,0,0,0-1.413-.06342.435.435,0,0,1-.4502.085.41616.41616,0,0,1-.24811-.55859.99937.99937,0,1,0-1.86505-.71869A2.44233,2.44233,0,0,0,39.09418,47.47485Z"/><path d="M47.53314,46.12531a1.00371,1.00371,0,0,0,.42774,1.90417,2.35713,2.35713,0,0,0,1.5888-3.33374,2.42141,2.42141,0,0,0-2.1513-1.39551,1.00027,1.00027,0,0,0-.041,1.99994A.43572.43572,0,0,1,47.53314,46.12531Z"/><path d="M33.95087,33.91406a.99985.99985,0,0,0,1.11706-1.65814,2.43677,2.43677,0,0,0-3.37671.65717c-.67212.91021-.6073,2.94574.77234,3.06829a1.006,1.006,0,0,0,.86811-1.49511A.43561.43561,0,0,1,33.95087,33.91406Z"/><path d="M23.72974,22.03967c-1.18885.50611-2.00318,3.07025-.20313,3.19232a1.00081,1.00081,0,0,0,.95307-1.045.43277.43277,0,0,1,.22167-.39941.41824.41824,0,0,1,.58881.16693.99977.99977,0,0,0,1.74793-.97064A2.44309,2.44309,0,0,0,23.72974,22.03967Z"/><path d="M22.56085,12.68567a.99955.99955,0,0,0,.29877,1.97644c.60882-.08728.517.54236.122.7597a1.00628,1.00628,0,0,0,.5343,1.84662,2.25416,2.25416,0,0,0,1.68634-1.65222A2.3104,2.3104,0,0,0,22.56085,12.68567Z"/><path d="M29.95105,19.72534c.24689-.55694.74268-.12372.69818.32221a1.0004,1.0004,0,0,0,1.99994.05072,2.50291,2.50291,0,0,0-2.31537-2.64038c-1.306-.16651-3.26184,1.79687-1.71185,2.75286A1.001,1.001,0,0,0,29.95105,19.72534Z"/><path d="M17.62848,36.59161a.99382.99382,0,0,0-1.18256-.77435c-1.71429.567-.28418,2.84851.99207,3.04169a2.44081,2.44081,0,0,0,2.96863-1.738,1.00036,1.00036,0,0,0-1.93549-.5058A.43524.43524,0,0,1,17.62848,36.59161Z"/><path d="M19.24951,27.096c-1.79333-.2309-1.49188,2.44458-.42383,3.17163a2.43617,2.43617,0,0,0,3.42755-.28015.99966.99966,0,1,0-1.52337-1.29486.43581.43581,0,0,1-.75092-.38477A1.001,1.001,0,0,0,19.24951,27.096Z"/><path d="M11.76648,32.7959c1.32342.60773,1.9054-1.2796,1.52325-2.27136a2.41694,2.41694,0,0,0-1.18829-1.43348c-1.07043-.72009-3.668-.00189-2.78613,1.57416a1.0008,1.0008,0,0,0,1.39557.22748.43451.43451,0,0,1,.63757.55176A1.00075,1.00075,0,0,0,11.76648,32.7959Z"/><path d="M40.28448,28.70239a1.00138,1.00138,0,0,0,1.25287-.65521,2.43947,2.43947,0,0,0-4.077-2.41193,1.00022,1.00022,0,0,0,1.44336,1.38453.4356.4356,0,0,1,.72546.42974A.99934.99934,0,0,0,40.28448,28.70239Z"/><path d="M49.78229,23.298a1.00019,1.00019,0,0,0-.00006-2.00018A1.00019,1.00019,0,0,0,49.78229,23.298Z"/><path d="M49.36151,28.26782a1.00016,1.00016,0,0,0,2.00012-.00006A1.00016,1.00016,0,0,0,49.36151,28.26782Z"/><path d="M56.1095,29.268a1.00023,1.00023,0,0,0-.00006-2.00025A1.00023,1.00023,0,0,0,56.1095,29.268Z"/><path d="M8.09137,20.9826a1.00019,1.00019,0,0,0-.00006-2.00018A1.00019,1.00019,0,0,0,8.09137,20.9826Z"/><path d="M14.06134,20.40332a1.00016,1.00016,0,0,0-.00006-2.00012A1.00016,1.00016,0,0,0,14.06134,20.40332Z"/><path d="M14.06134,14.6554a1.00017,1.00017,0,0,0-.00006-2.00013A1.00017,1.00017,0,0,0,14.06134,14.6554Z"/></svg>